# xmcd CD database file
#
# Track frame offsets:
#	183
#	16533
#	38008
#	51770
#	67958
#	85233
#	102533
#	119658
#	132658
#	150658
#	168133
#	181020
#	201858
#	221870
#
# Disc length: 3188 seconds
#
# Revision: 0
# Processed by: cddbd v1.4PL0 Copyright (c) Steve Scherf et al.
# Submitted via: CDex 1.40Beta9
#
DISCID=bc0c720e
DTITLE=Gunter Gabriel - Hey Boﬂ, ich brauch' mehr Geld
DYEAR=1900
DGENRE=Country
TTITLE0=Ich bin CB-Funker
TTITLE1=Franky's Curry Station
TTITLE2=Ohne Moos nichts los
TTITLE3=Willy Klein, der Fernsehmann
TTITLE4=Mit dem Hammer in der Hand
TTITLE5=Ich schlaf' nicht gern allein
TTITLE6=Hey Lisa (Hey Yvonne)
TTITLE7=Papa trinkt Bier
TTITLE8=Intercity Linie Nummer 4
TTITLE9=Komm' unter meine Decke
TTITLE10=Hey Boﬂ, ich brauch mehr Geld
TTITLE11=Er ist ein Kerl
TTITLE12=M‰dchen ab 30
TTITLE13=Rheinhausen, du darfst nicht untergeh'n
EXTD=ID3G: 2
EXTT0=
EXTT1=
EXTT2=
EXTT3=
EXTT4=
EXTT5=
EXTT6=
EXTT7=
EXTT8=
EXTT9=
EXTT10=
EXTT11=
EXTT12=
EXTT13=
PLAYORDER=
